<svg id="tekkie-hp-wctu-Icon-b-centerside" xmlns="http://www.w3.org/2000/svg" width="154.185" height="138.847" viewBox="0 0 154.185 138.847">
  <g id="Group_994" data-name="Group 994" transform="translate(84.363 7.748)">
    <path id="Path_884" data-name="Path 884" d="M656.141,361.535c-.326-.39-.262-.65-.088-.775l3.132-2.242a.317.317,0,0,1,.485.131.488.488,0,0,1-.145.584l-3.132,2.242A.329.329,0,0,1,656.141,361.535Zm6.263-4.484c-.327-.39-.262-.65-.088-.775l3.132-2.242a.318.318,0,0,1,.485.131.485.485,0,0,1-.145.584l-3.132,2.242A.316.316,0,0,1,662.4,357.051Zm6.263-4.484c-.326-.388-.262-.65-.086-.775l3.129-2.241a.318.318,0,0,1,.487.131.484.484,0,0,1-.145.582l-3.132,2.242A.316.316,0,0,1,668.667,352.567Zm6.263-4.484c-.326-.388-.262-.648-.088-.773l3.132-2.242a.317.317,0,0,1,.485.131.486.486,0,0,1-.145.584l-3.132,2.241A.316.316,0,0,1,674.93,348.082Zm6.263-4.484c-.326-.388-.262-.648-.088-.773l3.132-2.241a.316.316,0,0,1,.485.131.484.484,0,0,1-.145.582l-3.132,2.242A.321.321,0,0,1,681.193,343.6Zm6.263-4.483c-.326-.39-.262-.65-.086-.775L690.5,336.1a.317.317,0,0,1,.485.133.485.485,0,0,1-.146.584l-3.129,2.241A.333.333,0,0,1,687.456,339.115Zm6.265-4.484c-.328-.388-.263-.65-.088-.775l3.132-2.242a.316.316,0,0,1,.484.132.486.486,0,0,1-.145.584l-3.132,2.242A.319.319,0,0,1,693.721,334.631Zm6.261-4.484c-.325-.388-.26-.648-.088-.775l3.132-2.241a.316.316,0,0,1,.485.132.485.485,0,0,1-.145.582l-3.132,2.242A.321.321,0,0,1,699.982,330.147Zm6.264-4.483c-.326-.388-.263-.65-.088-.775l3.131-2.241a.316.316,0,0,1,.485.131.485.485,0,0,1-.145.584L706.5,325.6A.328.328,0,0,1,706.246,325.664Zm6.263-4.483c-.326-.39-.262-.65-.088-.775l3.131-2.242a.318.318,0,0,1,.487.131.49.49,0,0,1-.145.584l-3.132,2.242A.331.331,0,0,1,712.51,321.181Zm5.6-4.192c-.126-.1-2.365-3.008-2.365-3.008a.463.463,0,0,1,.063-.588.33.33,0,0,1,.513,0l2.241,2.907a.471.471,0,0,1-.063.59A.359.359,0,0,1,718.107,316.989Zm-4.478-5.818c-.128-.1-2.367-3.006-2.367-3.006a.467.467,0,0,1,.063-.588.333.333,0,0,1,.514,0l2.241,2.909a.469.469,0,0,1-.063.588A.358.358,0,0,1,713.629,311.172Zm-4.48-5.818c-.126-.1-2.367-3.006-2.367-3.006a.467.467,0,0,1,.063-.588.332.332,0,0,1,.514,0l2.241,2.907a.467.467,0,0,1-.063.588A.355.355,0,0,1,709.149,305.354Zm-4.478-5.816c-.128-.1-2.367-3.008-2.367-3.008a.465.465,0,0,1,.063-.588.333.333,0,0,1,.514,0l2.239,2.909a.465.465,0,0,1-.063.588A.359.359,0,0,1,704.671,299.537Zm-4.48-5.818c-.126-.1-2.367-3.008-2.367-3.008a.462.462,0,0,1,.063-.587.332.332,0,0,1,.514,0l2.239,2.909a.465.465,0,0,1-.063.588A.353.353,0,0,1,700.191,293.719Zm-4.48-5.818c-.126-.1-2.365-3.006-2.365-3.006a.462.462,0,0,1,.063-.588.331.331,0,0,1,.513,0l2.241,2.909a.467.467,0,0,1-.063.588A.358.358,0,0,1,695.712,287.9Zm-4.478-5.818c-.128-.1-2.367-3.006-2.367-3.006a.465.465,0,0,1,.063-.588.33.33,0,0,1,.513,0l2.241,2.909a.466.466,0,0,1-.062.588A.358.358,0,0,1,691.234,282.084Zm-4.48-5.816c-.126-.1-2.367-3.008-2.367-3.008a.467.467,0,0,1,.063-.588.334.334,0,0,1,.514,0l2.239,2.909a.464.464,0,0,1-.062.588A.358.358,0,0,1,686.754,276.267Zm-4.478-5.818c-.128-.1-2.367-3.008-2.367-3.008a.463.463,0,0,1,.063-.587.333.333,0,0,1,.514,0l2.239,2.909a.467.467,0,0,1-.063.59A.355.355,0,0,1,682.276,270.449Zm-4.48-5.816c-.126-.1-2.367-3.008-2.367-3.008a.465.465,0,0,1,.063-.588.333.333,0,0,1,.514,0l2.239,2.909a.463.463,0,0,1-.063.587A.356.356,0,0,1,677.8,264.633Zm-4.48-5.819c-.126-.1-2.365-3.006-2.365-3.006a.465.465,0,0,1,.063-.588.332.332,0,0,1,.513,0l2.241,2.909a.467.467,0,0,1-.063.588A.357.357,0,0,1,673.316,258.813ZM668.838,253c-.126-.1-2.367-3.006-2.367-3.006a.467.467,0,0,1,.063-.588.329.329,0,0,1,.513,0l2.241,2.909a.463.463,0,0,1-.063.587A.353.353,0,0,1,668.838,253Zm-4.48-5.818c-.126-.1-2.367-3.006-2.367-3.006a.467.467,0,0,1,.063-.588.333.333,0,0,1,.514,0l2.239,2.909a.465.465,0,0,1-.063.59A.352.352,0,0,1,664.358,247.179Zm-4.48-5.816c-.125-.1-2.365-3.006-2.365-3.006a.464.464,0,0,1,.063-.588.331.331,0,0,1,.514,0l2.239,2.909a.462.462,0,0,1-.063.587A.358.358,0,0,1,659.879,241.363Z" transform="translate(-655.91 -237.645)" fill="#1a1a1a"/>
  </g>
  <path id="Path_885" data-name="Path 885" d="M706.956,294.7a8.64,8.64,0,1,1-5.844-10.73A8.64,8.64,0,0,1,706.956,294.7Z" transform="translate(-553.125 -205.074)" fill="#fa0673"/>
  <path id="Path_886" data-name="Path 886" d="M665.005,322.667a6.9,6.9,0,1,1-4.668-8.571A6.9,6.9,0,0,1,665.005,322.667Z" transform="translate(-573.937 -188.77)" fill="#344fb5"/>
  <path id="Path_887" data-name="Path 887" d="M667.034,242.128a7.416,7.416,0,1,1-5.016-9.21A7.415,7.415,0,0,1,667.034,242.128Z" transform="translate(-573.386 -232.613)" fill="#f7b408"/>
  <path id="Path_888" data-name="Path 888" d="M653.353,321.714a12.028,12.028,0,0,0-2.987-2.79l11.818-15.161-13.261-17.575-24.263,10.054a12.072,12.072,0,1,0-6.2,14.67c-6.338,4.731-6.247,14.064-2.231,19.388a12.068,12.068,0,0,0,16.157,2.88,12.076,12.076,0,1,0,20.965-11.465Z" transform="translate(-601.127 -203.686)" fill="#f8b605"/>
  <path id="Path_889" data-name="Path 889" d="M672.574,275.344l-40.41,16.7,6.63,8.788,1.175,1.557,5.456,7.231Z" transform="translate(-584.368 -209.541)" fill="#f60"/>
  <path id="Path_890" data-name="Path 890" d="M692.363,253.779a35.45,35.45,0,0,0-9.6,4.951l-46.871,35.362,18.322,24.283,46.87-35.36a35.479,35.479,0,0,0,7.4-7.874Z" transform="translate(-582.355 -221.185)" fill="#1aa9fc"/>
  <path id="Path_891" data-name="Path 891" d="M668.978,266.224,639.319,288.6l-9.774-12.957C654.229,257.022,668.978,266.224,668.978,266.224Z" transform="translate(-585.782 -215.693)" fill="#2962ff"/>
  <path id="Path_892" data-name="Path 892" d="M677.448,281.2l-29.659,22.375,9.776,12.956C682.247,297.9,677.448,281.2,677.448,281.2Z" transform="translate(-575.931 -206.381)" fill="#2962ff"/>
  <path id="Path_893" data-name="Path 893" d="M674.875,273.748a5.8,5.8,0,1,1,1.137-8.12A5.8,5.8,0,0,1,674.875,273.748Z" transform="translate(-566.322 -216.033)" fill="#fbfadc"/>
  <path id="Path_894" data-name="Path 894" d="M699.745,251.374s-14.65-.695-27.237,3.756l16.148,21.4C696.393,265.654,699.745,251.374,699.745,251.374Z" transform="translate(-562.585 -222.505)" fill="#2962ff"/>
  <path id="Path_895" data-name="Path 895" d="M633.161,253.67l-6.958,6.067,9.512,2.8Z" transform="translate(-587.587 -221.244)" fill="#00c853"/>
</svg>
