<svg id="tekkie-hp-wctu-Icon-a-leftside" xmlns="http://www.w3.org/2000/svg" width="165.711" height="116.642" viewBox="0 0 165.711 116.642">
  <g id="Group_989" data-name="Group 989" transform="translate(20.048 64.981)">
    <rect id="Rectangle_290" data-name="Rectangle 290" width="24.16" height="2.73" fill="#9c18e1"/>
    <rect id="Rectangle_291" data-name="Rectangle 291" width="24.16" height="2.73" transform="translate(0 4.883)" fill="#9c18e1"/>
    <rect id="Rectangle_292" data-name="Rectangle 292" width="24.16" height="2.73" transform="translate(0 16.034)" fill="#9c18e1"/>
    <rect id="Rectangle_293" data-name="Rectangle 293" width="24.16" height="2.731" transform="translate(0 20.915)" fill="#9c18e1"/>
  </g>
  <g id="Group_990" data-name="Group 990" transform="translate(124.712 62.751)">
    <rect id="Rectangle_294" data-name="Rectangle 294" width="24.161" height="2.73" fill="#2962ff"/>
    <rect id="Rectangle_295" data-name="Rectangle 295" width="24.161" height="2.73" transform="translate(0 4.883)" fill="#2962ff"/>
    <rect id="Rectangle_296" data-name="Rectangle 296" width="24.161" height="2.73" transform="translate(0 16.034)" fill="#2962ff"/>
    <rect id="Rectangle_297" data-name="Rectangle 297" width="24.161" height="2.731" transform="translate(0 20.915)" fill="#2962ff"/>
  </g>
  <path id="Path_879" data-name="Path 879" d="M590.054,358.224H447.338a11.512,11.512,0,0,1-11.5-11.5V253.079a11.512,11.512,0,0,1,11.5-11.5H590.054a11.511,11.511,0,0,1,11.5,11.5v93.648A11.511,11.511,0,0,1,590.054,358.224ZM447.338,247.854a5.231,5.231,0,0,0-5.227,5.225v93.648a5.231,5.231,0,0,0,5.227,5.225H590.054a5.231,5.231,0,0,0,5.225-5.225V253.079a5.231,5.231,0,0,0-5.225-5.225Z" transform="translate(-435.84 -241.582)" fill="#f60"/>
  <path id="Rectangle_298" data-name="Rectangle 298" d="M5.448,0H50.155A5.447,5.447,0,0,1,55.6,5.447v6.515a5.447,5.447,0,0,1-5.447,5.447H5.448A5.448,5.448,0,0,1,0,11.961V5.448A5.448,5.448,0,0,1,5.448,0Z" transform="translate(17.096 23.797)" fill="#1a1a1a"/>
  <path id="Path_880" data-name="Path 880" d="M485.384,264.964a6.336,6.336,0,1,1-6.336-6.336A6.336,6.336,0,0,1,485.384,264.964Z" transform="translate(-416.114 -232.463)" fill="#fff"/>
  <g id="Group_992" data-name="Group 992" transform="translate(18.722 24.877)">
    <g id="Group_991" data-name="Group 991" transform="translate(7.024 8.961)">
      <path id="Path_881" data-name="Path 881" d="M507.534,302.85a7.36,7.36,0,0,1-1.3-.764c-.15-.107-.108-.256.094-.335a.757.757,0,0,1,.634.049l.593.422,1.466-.955a.76.76,0,0,1,.635-.035c.195.083.226.233.069.335l-1.833,1.194A.669.669,0,0,1,507.534,302.85Zm-3.618-2.573c-.364-.1-3.039-2-3.039-2-.149-.1-.107-.255.094-.333a.756.756,0,0,1,.634.051l2.677,1.9c.149.106.1.256-.1.335A.78.78,0,0,1,503.916,300.277Zm8.28-.464c-.479-.135-.51-.286-.353-.388l2.827-1.842a.758.758,0,0,1,.637-.035c.195.083.226.232.069.335l-2.829,1.842A.668.668,0,0,1,512.2,299.814Zm-13.632-3.345c-.364-.1-3.039-2-3.039-2-.15-.106-.107-.255.094-.333a.752.752,0,0,1,.634.049l2.675,1.9c.149.1.107.255-.094.333A.781.781,0,0,1,498.563,296.469Zm19.288-.339c-.479-.137-.511-.286-.353-.388l2.829-1.842a.755.755,0,0,1,.635-.035c.2.081.226.232.069.335l-2.827,1.842A.673.673,0,0,1,517.852,296.13Zm-24.641-3.467c-.364-.1-3.041-2-3.041-2-.149-.106-.107-.255.1-.333a.746.746,0,0,1,.634.051l2.677,1.9c.149.106.106.255-.1.333A.747.747,0,0,1,493.211,292.663Zm30.3-.218c-.479-.135-.51-.285-.352-.388l2.827-1.842a.767.767,0,0,1,.639-.035c.193.083.224.233.068.335l-2.829,1.844A.684.684,0,0,1,523.507,292.445Zm-35.65-3.59c-.362-.1-3.039-2-3.039-2-.149-.107-.107-.256.1-.335a.748.748,0,0,1,.632.051l2.677,1.9c.149.106.107.255-.1.335A.781.781,0,0,1,487.857,288.854Zm41.306-.094c-.479-.137-.51-.285-.353-.388l2.829-1.842a.758.758,0,0,1,.637-.035c.193.083.226.232.068.335l-2.827,1.842A.674.674,0,0,1,529.163,288.761Zm5.655-3.684c-.479-.137-.508-.286-.351-.388l2.827-1.842a.762.762,0,0,1,.639-.035c.193.083.224.232.068.335l-2.829,1.842A.666.666,0,0,1,534.818,285.077Zm-52.311-.031c-.365-.1-3.041-2-3.041-2-.149-.106-.106-.255.1-.335a.757.757,0,0,1,.634.051l2.675,1.9c.149.106.107.255-.1.333A.771.771,0,0,1,482.506,285.046Zm57.969-3.653c-.479-.137-.511-.287-.353-.388l2.829-1.842a.755.755,0,0,1,.635-.037c.195.083.226.233.069.336l-2.829,1.842A.682.682,0,0,1,540.476,281.393Zm-63.322-.153c-.364-.1-3.041-2-3.041-2-.149-.106-.107-.255.1-.333a.758.758,0,0,1,.634.049l2.675,1.9c.149.106.107.255-.1.333A.739.739,0,0,1,477.154,281.239Zm68.977-3.532c-.479-.135-.51-.285-.353-.388l2.829-1.842a.757.757,0,0,1,.637-.035c.2.083.226.233.069.335l-2.829,1.842A.669.669,0,0,1,546.13,277.707Zm-74.331-.276c-.364-.1-3.039-2-3.039-2-.15-.1-.107-.255.094-.333a.751.751,0,0,1,.634.051l2.677,1.9c.149.106.107.256-.1.333A.74.74,0,0,1,471.8,277.431Zm79.987-3.408c-.479-.137-.511-.285-.353-.388l2.829-1.842a.758.758,0,0,1,.637-.035c.193.083.226.232.068.335l-2.829,1.842A.669.669,0,0,1,551.787,274.023Zm-85.338-.4c-.365-.1-3.042-2-3.042-2-.149-.106-.106-.256.1-.333a.746.746,0,0,1,.634.049l2.675,1.9c.15.107.107.256-.094.335A.772.772,0,0,1,466.449,273.623Zm90.994-3.283c-.479-.137-.51-.285-.353-.388l2.829-1.842a.76.76,0,0,1,.635-.037c.2.083.226.233.069.336l-2.827,1.842A.673.673,0,0,1,557.443,270.34Zm-96.348-.525c-.364-.1-3.039-2-3.039-2-.149-.106-.107-.255.1-.333a.743.743,0,0,1,.632.051l2.677,1.9c.149.106.107.255-.1.333A.779.779,0,0,1,461.1,269.815Zm102-3.16c-.479-.135-.508-.285-.35-.388l2.826-1.84a.758.758,0,0,1,.637-.037c.195.083.226.233.069.335l-2.829,1.843A.679.679,0,0,1,563.1,266.654Zm-107.354-.646c-.365-.1-3.042-2-3.042-2-.149-.107-.106-.256.1-.335a.756.756,0,0,1,.634.049l2.677,1.9c.149.106.106.255-.1.333A.738.738,0,0,1,455.744,266.008Z" transform="translate(-452.613 -263.627)" fill="#1a1a1a"/>
    </g>
    <path id="Path_882" data-name="Path 882" d="M462.912,265.227a7.438,7.438,0,1,1-7.438-7.438A7.437,7.437,0,0,1,462.912,265.227Z" transform="translate(-448.037 -257.789)" fill="#fa0673"/>
    <path id="Path_883" data-name="Path 883" d="M535.543,265.227a7.438,7.438,0,1,1-7.438-7.438A7.437,7.437,0,0,1,535.543,265.227Z" transform="translate(-409.182 -257.789)" fill="#f60"/>
    <circle id="Ellipse_94" data-name="Ellipse 94" cx="8.343" cy="8.343" r="8.343" transform="matrix(0.756, -0.654, 0.654, 0.756, 51.632, 43.961)" fill="#ffb850"/>
  </g>
</svg>
