<svg id="tekkie-hp-wctu-Icon-c-rightside" xmlns="http://www.w3.org/2000/svg" width="163.986" height="116.642" viewBox="0 0 163.986 116.642">
  <g id="Group_998" data-name="Group 998" transform="translate(26.023 54.038)">
    <path id="Path_896" data-name="Path 896" d="M851.521,277.962H799.278a11.729,11.729,0,0,0-11.7,11.694v26.05a11.731,11.731,0,0,0,11.7,11.7H804.1c2.927,3.292-1.1,8.961-1.1,8.961,10.657-1.1,13.813-8.961,13.813-8.961h34.7a11.73,11.73,0,0,0,11.7-11.7v-26.05A11.728,11.728,0,0,0,851.521,277.962Z" transform="translate(-787.582 -277.962)" fill="#f60"/>
    <g id="Group_996" data-name="Group 996" transform="translate(12.432 17.004)">
      <path id="Path_897" data-name="Path 897" d="M845.244,289.37H795.65a.588.588,0,1,1,0-1.177h49.594a.588.588,0,0,1,0,1.177Z" transform="translate(-795.062 -288.193)" fill="#fff"/>
    </g>
    <g id="Group_997" data-name="Group 997" transform="translate(12.432 30.541)">
      <path id="Path_898" data-name="Path 898" d="M845.244,297.515H795.65a.588.588,0,1,1,0-1.177h49.594a.588.588,0,1,1,0,1.177Z" transform="translate(-795.062 -296.338)" fill="#fff"/>
    </g>
  </g>
  <g id="Group_1002" data-name="Group 1002" transform="translate(0 27.917)">
    <g id="Group_999" data-name="Group 999" transform="translate(8.932 83.831)">
      <path id="Path_899" data-name="Path 899" d="M778.345,314.907a7.941,7.941,0,0,1-1.015-1.74.342.342,0,0,1,.169-.454.348.348,0,0,1,.455.169l.7,1.539a.342.342,0,0,1-.171.454A.325.325,0,0,1,778.345,314.907Z" transform="translate(-777.298 -312.685)" fill="#1a1a1a"/>
    </g>
    <g id="Group_1000" data-name="Group 1000">
      <path id="Path_900" data-name="Path 900" d="M779.777,343.626a22.514,22.514,0,0,1-1.7-3.361.343.343,0,1,1,.63-.269c.455,1.067.921,2.116,1.383,3.146a.343.343,0,0,1-.171.454A.354.354,0,0,1,779.777,343.626Zm-2.7-6.339a19.98,19.98,0,0,1-1.534-3.452.341.341,0,0,1,.209-.437.334.334,0,0,1,.437.208c.369,1.042.764,2.092,1.208,3.213a.343.343,0,0,1-.194.444A.305.305,0,0,1,777.078,337.287Zm-2.292-6.49a16.666,16.666,0,0,1-1.253-3.578.342.342,0,0,1,.251-.415.331.331,0,0,1,.414.251c.266,1.067.573,2.177.917,3.3a.347.347,0,0,1-.229.429A.328.328,0,0,1,774.786,330.8Zm-1.657-6.681a14.222,14.222,0,0,1-.863-3.7.341.341,0,0,1,.3-.381.338.338,0,0,1,.382.3c.131,1.107.306,2.244.519,3.379a.341.341,0,0,1-.274.4A.27.27,0,0,1,773.129,324.116Zm-.808-6.832a.346.346,0,0,1-.344-.327c-.035-.731-.052-1.471-.053-2.214q0-.626.017-1.257a.343.343,0,0,1,.686.022q-.017.618-.018,1.235c0,.731.02,1.458.055,2.182a.345.345,0,0,1-.327.359Zm.189-6.879a.35.35,0,0,1-.341-.379c.121-1.15.289-2.305.5-3.434a.328.328,0,0,1,.4-.274.345.345,0,0,1,.274.4c-.206,1.11-.372,2.247-.49,3.38A.342.342,0,0,1,772.511,310.4Zm1.248-6.764c-.273-.06-.381-.248-.332-.432.293-1.105.633-2.222,1.009-3.316a.343.343,0,1,1,.648.223c-.371,1.08-.7,2.179-.994,3.269A.342.342,0,0,1,773.759,303.64Zm2.234-6.508c-.307-.1-.389-.3-.314-.477.439-1.039.927-2.1,1.453-3.146a.343.343,0,1,1,.613.307c-.52,1.035-1,2.081-1.436,3.1A.34.34,0,0,1,775.993,297.132Zm3.076-6.158c-.336-.14-.391-.351-.3-.515.567-.977,1.175-1.971,1.813-2.95a.345.345,0,0,1,.474-.1.341.341,0,0,1,.1.474c-.63.969-1.233,1.951-1.79,2.92A.346.346,0,0,1,779.069,290.974Zm3.754-5.772c-.356-.176-.389-.391-.278-.543.685-.942,1.4-1.865,2.116-2.741a.342.342,0,1,1,.53.434c-.71.868-1.414,1.778-2.091,2.711A.346.346,0,0,1,782.823,285.2Zm4.363-5.318c-.372-.219-.381-.437-.253-.577.783-.843,1.6-1.672,2.435-2.465a.342.342,0,1,1,.472.5c-.823.785-1.632,1.6-2.4,2.437A.345.345,0,0,1,787.186,279.884Zm4.989-4.738c-.384-.269-.366-.485-.219-.607.874-.73,1.793-1.444,2.732-2.131a.343.343,0,0,1,.4.555c-.927.676-1.835,1.383-2.7,2.1A.355.355,0,0,1,792.175,275.145Zm5.568-4.044c-.392-.321-.344-.532-.181-.633.981-.617,1.989-1.2,2.995-1.742a.342.342,0,1,1,.324.6c-.992.532-1.988,1.11-2.957,1.72A.352.352,0,0,1,797.743,271.1Zm6.063-3.254c-.391-.374-.314-.577-.143-.655,1.054-.479,2.132-.926,3.2-1.326a.34.34,0,0,1,.442.2.344.344,0,0,1-.2.442c-1.057.4-2.121.836-3.159,1.306A.348.348,0,0,1,803.806,267.848Zm6.44-2.425c-.382-.425-.281-.615-.1-.672,1.084-.327,2.209-.633,3.346-.9a.342.342,0,0,1,.158.666c-1.12.269-2.232.57-3.3.9A.342.342,0,0,1,810.246,265.423Zm6.7-1.592c-.371-.47-.244-.648-.058-.68,1.125-.2,2.277-.364,3.427-.5a.351.351,0,0,1,.381.3.344.344,0,0,1-.3.381c-1.137.135-2.275.3-3.389.492A.359.359,0,0,1,816.944,263.831Zm17.162-.547c-1.145-.123-2.294-.214-3.454-.273a.344.344,0,0,1-.324-.361.359.359,0,0,1,.361-.326c1.172.06,2.333.153,3.454.276a.342.342,0,0,1-.037.683Zm-10.321-.246a.342.342,0,0,1-.02-.683c1.135-.068,2.3-.1,3.462-.11a.343.343,0,0,1,0,.686c-1.15,0-2.3.04-3.425.106Z" transform="translate(-771.924 -262.245)" fill="#1a1a1a"/>
    </g>
    <g id="Group_1001" data-name="Group 1001" transform="translate(65.348 0.843)">
      <path id="Path_901" data-name="Path 901" d="M813.243,263.784c-.088-.012-.675-.158-1.717-.344a.345.345,0,0,1-.278-.4.321.321,0,0,1,.4-.278c1.072.191,1.659.337,1.682.344a.343.343,0,0,1-.085.676Z" transform="translate(-811.243 -262.752)" fill="#1a1a1a"/>
    </g>
  </g>
  <path id="Path_902" data-name="Path 902" d="M786.112,278.428a5.75,5.75,0,1,1-6.3-5.139A5.749,5.749,0,0,1,786.112,278.428Z" transform="translate(-770.125 -227.037)" fill="#2962ff"/>
  <path id="Path_903" data-name="Path 903" d="M803.59,251.442l3.8-3.8a1.034,1.034,0,0,0-1.463-1.463l-3.8,3.8-3.8-3.8a1.034,1.034,0,0,0-1.461,1.463l3.8,3.8-3.8,3.8a1.032,1.032,0,1,0,1.461,1.459l3.8-3.794,3.8,3.794a1.033,1.033,0,0,0,1.463-1.459Z" transform="translate(-755.61 -245.162)" fill="#fa0673"/>
  <path id="Path_904" data-name="Path 904" d="M843.119,310.573l-5.352,8.4h10.7Z" transform="translate(-728.336 -202.335)" fill="#00c853"/>
  <g id="Group_1005" data-name="Group 1005" transform="translate(62.195)">
    <path id="Path_905" data-name="Path 905" d="M899.441,245.448h-78.4a11.729,11.729,0,0,0-11.694,11.7v43.147a11.729,11.729,0,0,0,11.694,11.7h50.754s4.246,10.585,18.589,12.063c0,0-5.416-7.629-1.477-12.063h10.535a11.731,11.731,0,0,0,11.7-11.7V257.143A11.731,11.731,0,0,0,899.441,245.448Z" transform="translate(-809.346 -245.448)" fill="#9c18e1"/>
    <g id="Group_1003" data-name="Group 1003" transform="translate(16.921 23.092)">
      <path id="Path_906" data-name="Path 906" d="M886.811,260.517h-66.7a.588.588,0,0,1,0-1.175h66.7a.588.588,0,1,1,0,1.175Z" transform="translate(-819.527 -259.342)" fill="#fbfadc"/>
    </g>
    <g id="Group_1004" data-name="Group 1004" transform="translate(16.921 41.307)">
      <path id="Path_907" data-name="Path 907" d="M886.811,271.479h-66.7a.588.588,0,0,1,0-1.177h66.7a.588.588,0,1,1,0,1.177Z" transform="translate(-819.527 -270.302)" fill="#fbfadc"/>
    </g>
  </g>
</svg>
